<svg xmlns="http://www.w3.org/2000/svg" viewBox="0 0 500 500"><g id="freepik--background-complete--inject-52"><path d="M142.48,160.9H56.26S75.53,133,90.71,133s19.66,18.6,19.66,18.6,10.71-8.68,20.64-7.13S142.48,160.9,142.48,160.9Z" style="fill:#ebebeb"></path><path d="M439.47,251.61H353.25s19.26-27.92,34.44-27.92,19.67,18.61,19.67,18.61,10.71-8.68,20.63-7.13S439.47,251.61,439.47,251.61Z" style="fill:#ebebeb"></path><path d="M443.74,82.6h-135s13.38-36.55,34-36.55,27,25.23,27,25.23,13.9-13.71,25.31-13.71,21.34,18.11,21.34,18.11S432.57,65.94,443.74,82.6Z" style="fill:#ebebeb"></path><path d="M352,315.22a28.12,28.12,0,0,0-.86,12.3c1.28,8.62,7.77,15.44,9.18,23.93-.18,1-.39,2-.66,3.07a.08.08,0,0,1,0,.05v0h0s0,0,0,0a.11.11,0,0,0,.07.09,3.78,3.78,0,0,0,.17-.35c.1-.21.2-.42.28-.64s.25-.6.37-.91c0,0,.07-.14.07-.18,3.16-8.72.26-18.38-1.21-27.23-.85-5.06-.49-10.16-1.25-15.2-.18-1.2-.17-3.48-1.9-3C354.26,307.71,352.46,313.6,352,315.22Z" style="fill:#ebebeb"></path><path d="M353.24,322.65c-.55,10.49,9.12,19.66,6.87,30.13-.07.3-.14.59-.22.88s-.11.4-.17.6h0c0,.08,0,.16-.08.25a.08.08,0,0,1,0,.05v0h0s0,0,0,0a.11.11,0,0,0,.07.09h0a.1.1,0,0,0,.09-.06c.12-.31.23-.62.32-.94a13.78,13.78,0,0,0,.54-2.31s0,0,0,0a33.62,33.62,0,0,0-.21-14c-1.2-5.95-2.72-11.71-3.8-17.73-.13-.74-.14-3.67-1.33-3.28C353.82,316.84,353.3,321.44,353.24,322.65Zm.51-1.55c.1-.6.86-4.53,1.84-4.12.58.24.65,3.22.74,3.64l1.05,4.86c.74,3.41,1.51,6.81,2.24,10.22a45,45,0,0,1,1.17,12.61C360.25,339.13,352.23,330.61,353.75,321.1Z" style="fill:#fff"></path><path d="M349.45,415.88c0,.13.12.33.31.21,7.94-5.12,17.85-.95,26.07-5.52a42.24,42.24,0,0,0,8.83-7.05,33.84,33.84,0,0,0,5.37-6.4c.2-.32,1.2-1.62,1-2.26-1.26-4.9-14,3.39-16.11,4.55-8.32,4.54-15.93,8.68-23.21,14.5-.77.6-1.53,1.22-2.28,1.87C349.45,415.79,349.45,415.83,349.45,415.88Z" style="fill:#ebebeb"></path><path d="M349.45,415.88l.87-.55c5.46-2.62,11.54-3.54,17.41-5A32.62,32.62,0,0,0,383.11,402c.78-.76,4-3.66,3.05-5.13-.85-1.31-4.1,1.22-4.89,1.67-5.91,3.31-11.69,6.67-17.85,9.52-3.94,1.83-7.93,3.65-11.67,5.85-.77.6-1.53,1.22-2.28,1.87C349.45,415.79,349.45,415.83,349.45,415.88Zm3.71-2.22c4.35-2.42,8.91-4.45,13.43-6.6q4.67-2.21,9.12-4.78c1.63-.95,3.25-1.91,4.89-2.85.82-.47,1.64-.93,2.47-1.37.41-.23,1.78-1,2.12-.38.94,1.7-8.18,10.36-19.5,12.6A71.28,71.28,0,0,0,353.16,413.66Z" style="fill:#fff"></path><path d="M362.67,400.84a.06.06,0,0,0,0,.1.08.08,0,0,0,.12,0c.16-.17.32-.32.49-.48.6-.6,1.18-1.2,1.75-1.81l.31-.33.09,0c6.34-6.49,15.95-8.47,21.37-16a36.78,36.78,0,0,0,5.09-11.16c.49-1.71,2.94-6.89.8-8.24-1.67-1.05-4.28,1.23-5.37,2.19-3.45,3.07-5.9,7.36-8.31,11.25s-4.51,7.73-6.75,11.6a74.07,74.07,0,0,1-7.1,9.92Z" style="fill:#ebebeb"></path><path d="M362.67,400.84a.06.06,0,0,0,0,.1l1.56-1.62-.95,1.14c.6-.6,1.18-1.2,1.75-1.81.28-.32.55-.64.84-1a101.45,101.45,0,0,1,11.69-9.7,21.29,21.29,0,0,0,5.27-5.23c2.66-3.81,6.79-12.78,6-14.14s-2.45,1.51-2.91,2.13c-3.7,5-6.7,10.51-10.66,15.36-2.68,3.26-5.39,6.49-8.09,9.72-.68.66-1.35,1.33-2,2ZM388.23,369c.7.29-.37,2.7-.64,3.34a100.49,100.49,0,0,1-4.47,9.08c-1.75,3.1-4.24,5.14-7.11,7.16a74.47,74.47,0,0,0-6.86,5.45c2.68-3,5.34-6.11,7.82-9.3,2.06-2.65,3.85-5.48,5.67-8.3.9-1.41,1.81-2.81,2.78-4.18.25-.37,2.18-3.51,2.81-3.25" style="fill:#fff"></path><path d="M315.38,440.87a.06.06,0,0,0,.06.07s.07,0,.09-.06l.12-.61c.14-.74.26-1.47.37-2.2l.06-.41a.18.18,0,0,0,.05-.07c1.4-8,7.47-14.28,7.66-22.54a32.27,32.27,0,0,0-1.88-10.78c-.49-1.5-1.31-6.55-3.56-6.47-1.76.07-2.53,3.06-2.84,4.32-1,4-.64,8.39-.45,12.47s.58,8,.88,11.94a66.87,66.87,0,0,1-.22,10.88C315.62,438.55,315.5,439.71,315.38,440.87Z" style="fill:#ebebeb"></path><path d="M315.38,440.87a.06.06,0,0,0,.06.07l.33-2-.12,1.31c.14-.74.26-1.47.37-2.2,0-.38.09-.76.14-1.14a89.93,89.93,0,0,1,3.71-13,19.19,19.19,0,0,0,1.25-6.5c0-4.15-1.46-12.83-2.73-13.43s-1,2.35-1.07,3c-.17,5.57.38,11.11-.1,16.67-.33,3.75-.69,7.49-1.05,11.23-.17.83-.32,1.66-.45,2.5C315.62,438.55,315.5,439.71,315.38,440.87Zm1.31-8.32c.45-3.59.85-7.19,1.07-10.78.18-3,.07-6,0-9-.05-1.49-.09-3-.07-4.47,0-.41-.16-3.69.43-3.81s1.1,2.17,1.22,2.78a89.3,89.3,0,0,1,1.29,8.93,19.53,19.53,0,0,1-1.63,8.85A68.1,68.1,0,0,0,316.69,432.55Z" style="fill:#fff"></path><path d="M314.46,447.48a1.17,1.17,0,0,0,.62-.21c8.12-3.11,17-3.25,25.17-6.36a23.59,23.59,0,0,0,9.48-6.24c1.09-1.24,4.87-5.5,4-7.47-2.48-5.94-29.89,12.77-38.91,19.5a1.39,1.39,0,0,0-.41.28C314.16,447.23,314.21,447.46,314.46,447.48Z" style="fill:#ebebeb"></path><path d="M314.46,447.48c.6-.33,1.21-.67,1.82-1,2-.8,4-1.55,6-2.19,3.22-1,6.53-1.61,9.8-2.44a31,31,0,0,0,13.69-7.32c.84-.77,3.35-2.83,2.8-4.28s-2.54,0-3.27.32C335,435.5,325,441.16,315,446.71c-.18.09-.35.17-.52.27S314.21,447.46,314.46,447.48Zm4.78-2.62q5.88-3.19,11.76-6.34,4.61-2.46,9.24-4.89c1.53-.8,3-1.62,4.58-2.39.61-.3,2.95-1.5,3.18-.65s-1.41,2.43-1.7,2.73c-4.63,4.76-10.57,7.21-16.94,8.63A74.62,74.62,0,0,0,319.24,444.86Z" style="fill:#fff"></path><path d="M353.38,378.85a.32.32,0,0,0,0,.31.39.39,0,0,0,.35.25.49.49,0,0,0,.24,0,.2.2,0,0,0,.14-.05c3.83-3.75,9.69-7.24,13.64-10.84a41.84,41.84,0,0,0,7.6-9.6,56.68,56.68,0,0,0,5.62-12.48c.62-2.08,2.41-7,.72-9-3.47-4.2-10.48,11.1-11.49,12.81C364.53,359.72,358.91,369.26,353.38,378.85Z" style="fill:#ebebeb"></path><path d="M353.34,379.16a.39.39,0,0,0,.35.25l.68-1c1.5-1.76,3-3.53,4.6-5.21,2.6-2.74,5.58-5.11,8.09-7.93,4.37-4.92,12.58-20.59,10.22-22.15-1.23-.81-2.75,2.41-3.2,3.18-1.76,3-3.13,6.23-4.94,9.23-1.88,3.16-4,6.19-6,9.23-3.18,4.67-6.38,9.33-9.52,14Zm3.15-3.8c2.83-4.13,5.62-8.28,8.43-12.43,1.93-2.87,3.84-5.76,5.57-8.77,1-1.68,1.82-3.41,2.68-5.14.43-.84.85-1.69,1.33-2.51s1.95-3.63,2.64-2.56-1.39,5.66-1.87,6.74c-.81,1.74-1.63,3.47-2.51,5.18a45.31,45.31,0,0,1-6.3,9.4c-2.54,2.8-5.5,5.18-8.06,8C357.76,373.93,357.11,374.64,356.49,375.36Z" style="fill:#fff"></path><path d="M307.39,386.48c7.05,7.66,18.44,9.79,22.59,23.23a.06.06,0,0,0,.1,0,0,0,0,0,0,0-.05c-.25-1.35-.56-2.7-.92-4.05a58.61,58.61,0,0,0-9.76-20.14,44.15,44.15,0,0,0-9.52-9.34c-1.86-1.31-5.89-4.67-8.21-4.15C296.68,373.12,306.1,385.09,307.39,386.48Z" style="fill:#ebebeb"></path><path d="M307.81,381.75c2.84,5.58,8.48,9.19,12.79,13.53a50.8,50.8,0,0,1,7.81,9.87c.58,1.51,1.14,3,1.67,4.58a0,0,0,0,0,0-.05c-.25-1.35-.56-2.7-.92-4.05a2.25,2.25,0,0,1-.12-.21,62.38,62.38,0,0,0-5.86-11.73,64.59,64.59,0,0,0-11.64-13.79c-.77-.7-3.34-3.74-4.67-3S307.41,381,307.81,381.75Zm-.48-4.32c1-.37,5.5,4.13,7.27,6a64.47,64.47,0,0,1,9.83,13.17,59,59,0,0,1,3.1,6.41,52.92,52.92,0,0,0-5.1-6.39c-3.89-4.17-8.76-7.5-12.28-12a17.34,17.34,0,0,1-2.34-3.81C307.57,380.25,306.45,377.76,307.33,377.43Z" style="fill:#fff"></path><path d="M316.14,344.64a47.82,47.82,0,0,0-.08,11.28,47.17,47.17,0,0,0,7.38,20.34l.21.33c.06.36.13.72.22,1.07,0,.08,0,.15.05.24l0,.05h0a.09.09,0,0,0,.16-.07c0-.44,0-.88,0-1.33.15-9.07,1.83-18,.61-27.06-.27-2-1.57-15-6.11-12.76C316.51,337.76,316.37,342.74,316.14,344.64Z" style="fill:#ebebeb"></path><path d="M318,346.46c-.31,5.6,1.16,11.61,2.31,17.06a126.8,126.8,0,0,0,3.18,12.74c.1.34.22.69.33,1,0,.12.06.25.1.38s0,.19.07.29h0a.09.09,0,0,0,.16-.07c0-.44,0-.88,0-1.33s-.18-.66-.27-1a106,106,0,0,1-.56-14.92c0-2.71,0-5.4-.25-8.09a36,36,0,0,0-1.16-7.87c-.35-1.09-1.08-3.23-2.61-2.44C318,342.91,318,345.28,318,346.46Zm3.34-1.89c1,2.94,1.1,6.4,1.31,9.48s.17,5.9.14,8.85c0,3.12-.06,6.31.22,9.44-1.07-3.94-2.11-7.89-2.87-11.93-.6-3.16-1.13-6.34-1.5-9.53a24.2,24.2,0,0,1-.16-5,12.7,12.7,0,0,1,.24-1.75C319.07,342.35,320.86,343.24,321.29,344.57Z" style="fill:#fff"></path><path d="M371.9,321.05c0,.14,0,.29-.08.43a.27.27,0,0,0,.53.09l.18-.79h0c0-.22.1-.42.14-.64.2-.35.41-.7.64-1,2.4-3.65,6.58-6.73,9.41-9.84a56.62,56.62,0,0,0,7-9.09,28.21,28.21,0,0,0,4.06-10.83c.13-1.05.62-3.68-.68-4.33-1.65-.83-4.16,2.32-5.05,3.15a47,47,0,0,0-7.85,9.75C375.79,305.08,373.54,312.89,371.9,321.05Z" style="fill:#ebebeb"></path><path d="M372.64,319.24a17.63,17.63,0,0,0-.74,1.81c0,.14,0,.29-.08.43a.26.26,0,0,0,.33.3c0-.1.06-.21.1-.31s.19-.46.28-.69h0c.24-.57.5-1.12.78-1.67a36.37,36.37,0,0,1,3.53-5.61c2.31-3.09,4.73-6.09,6.93-9.26,1.1-1.59,9.57-13.84,6.24-15-.63-.22-1.24.62-1.57,1a26.37,26.37,0,0,0-3,4.1c-2.12,3.32-4.12,6.73-6,10.19A108.58,108.58,0,0,0,372.64,319.24Zm6.05-12.65q2.43-4.59,5.12-9c.87-1.44,1.74-2.89,2.7-4.29.46-.69,2.84-3.8,3.5-3.39.95.6-1.31,5.44-2,6.74-.79,1.48-1.65,2.93-2.55,4.35-1.81,2.86-3.81,5.6-5.86,8.29-1.81,2.38-4,4.9-5.67,7.65A109.37,109.37,0,0,1,378.69,306.59Z" style="fill:#fff"></path><path d="M342.82,363.66c0,.14.09.27.14.42a.26.26,0,0,0,.44.09.28.28,0,0,0,.07-.28l-.24-.78h0c-.07-.21-.13-.42-.19-.63,0-.4,0-.8,0-1.21.25-4.36,2.31-9.12,3.2-13.23a56.6,56.6,0,0,0,1.49-11.37,28.12,28.12,0,0,0-1.93-11.41c-.41-1-1.3-3.49-2.76-3.41-1.84.11-2.43,4.1-2.78,5.26a46.71,46.71,0,0,0-1.9,12.38C338.17,347.89,340.14,355.78,342.82,363.66Z" style="fill:#ebebeb"></path><path d="M342.55,361.72a15.35,15.35,0,0,0,.27,1.94c0,.14.09.27.14.42a.26.26,0,0,0,.44.09c0-.11,0-.22-.07-.32,0-.25-.07-.49-.1-.74h0c-.08-.62-.13-1.22-.16-1.84a38.17,38.17,0,0,1,.23-6.63c.45-3.83,1-7.64,1.35-11.48.16-1.93,1.34-16.77-2.13-16.11-.66.12-.76,1.15-.87,1.62a25.42,25.42,0,0,0-.58,5.07c-.17,3.93-.19,7.88-.08,11.82A108,108,0,0,0,342.55,361.72Zm-1.11-14c-.14-3.47-.17-6.92-.11-10.38,0-1.69.05-3.38.18-5.07.06-.83.56-4.71,1.33-4.69,1.12,0,1.59,5.36,1.65,6.84.06,1.68,0,3.36,0,5-.13,3.38-.49,6.75-.91,10.1-.37,3-1,6.25-1.07,9.47A107.31,107.31,0,0,1,341.44,347.75Z" style="fill:#fff"></path><path d="M323,369.75a212.6,212.6,0,0,0,4.78,23.31c1.61,5.94,3.23,12,3.46,18.16a46.4,46.4,0,0,1-5.61,22.68q3.25-3.63,6.44-7.37c4.32-5.07,8.61-10.28,11.68-16.23.3-.59.58-1.18.86-1.78a.17.17,0,0,1,0-.14,80.74,80.74,0,0,0,1.55-23.94,66.77,66.77,0,0,0-5.21-12c-2.17-3.94-4.25-7.77-5.4-12.15-.07-.25.29-.4.38-.15,2.21,5.79,6.75,11.43,9.42,17.43-.15-1-.31-2-.5-3-1.74-9.51-5-19.06-1.55-28.56.12-.32.57-.1.48.21-3.28,10.59,1.87,22.24,3.4,32.76,1.14,7.82,1.52,16.25-.37,24a126.58,126.58,0,0,0,3.48-13.15c6-26.67,12.9-53.2,25.86-77.44.13-.23.51-.07.39.17C363.23,339,358,367.56,351.06,395.91c-.08.32-.17.64-.25,1a53.91,53.91,0,0,1,8.34-10.08c.15-.14.4,0,.26.22-3.8,4.87-6.71,10.2-10.13,15.29a55.22,55.22,0,0,1-5,11.41,90.71,90.71,0,0,1-8.83,12.08c5.42-4.54,10.88-9,16-14A241.87,241.87,0,0,0,373.12,388a.12.12,0,0,1,.19.15,203,203,0,0,1-21.55,25.71c-6.74,6.7-14,13.54-22.06,18.68-7.73,8.91-16,17.85-25.78,24.37a.43.43,0,0,1-.5-.7c1.8-1.59,3.55-3.21,5.28-4.85,1.69-3.77,4-7.23,5.53-11.14A61.43,61.43,0,0,0,317.82,426c.05-.36.57-.26.55.09-.41,6.64-1.9,14.81-5.44,21.15q3.7-3.66,7.27-7.46c6.36-9.7,10.5-21.23,9.11-32.84-.72-6-2.43-11.73-3.83-17.55a128.64,128.64,0,0,1-2.92-19.62A.22.22,0,0,1,323,369.75Z" style="fill:#ebebeb"></path><path d="M190.5,332.14c1.37,3.78,1.09,8.44.93,12.37A97.77,97.77,0,0,1,189.85,358c-.74,4.14-1.7,8.23-2.72,12.3l0,.11c-.07.27-.13.54-.2.81s-.08.66-.14,1a.21.21,0,0,1-.18.17.17.17,0,0,1-.21-.19c0-.18,0-.37.06-.54.66-7.64-3.75-14.62-4-22.18-.15-4.15.85-8.31,1.62-12.36.43-2.24.54-5.15,1.41-7.25.23-.57.28-1.17.91-1.47C188.29,327.44,190,330.82,190.5,332.14Z" style="fill:#ebebeb"></path><path d="M188.69,335c-1.2-1-1.9,1.75-2.14,2.5-1.57,5-2.45,11-1.55,16.27,1,5.74,2,11.49,1.6,17.3-.06.19-.12.38-.17.57s0,.36-.06.54a.17.17,0,0,0,.21.19l.06-.35c.16-.54.32-1.08.46-1.63l0-.11a107.66,107.66,0,0,0,2-11.91,76.63,76.63,0,0,0,.9-16.84c-.11-1.36-.27-2.71-.51-4.05C189.41,336.77,189.28,335.45,188.69,335Zm.68,3.4c.22,1.42.36,2.85.44,4.29a78.89,78.89,0,0,1-.87,14.8,108.13,108.13,0,0,1-2.1,12.68,44.7,44.7,0,0,0-.42-9.93c-.35-2.48-.87-4.92-1.24-7.4a28.06,28.06,0,0,1,.3-8.33,35.77,35.77,0,0,1,1.67-7.73c.2-.49.76-1.58,1.18-1.5C189.08,335.38,189.29,337.81,189.37,338.37Z" style="fill:#fff"></path><path d="M156.2,390.49s0,0,0,0" style="fill:#ebebeb"></path><path d="M186.78,443.26a.17.17,0,0,1,.09.22h0a.22.22,0,0,1-.31.13c-4.68-2.36-9.14-6.12-14.56-6.4-4.23-.22-7.87.31-11.9-1.43a32,32,0,0,1-10.76-7.72,33.22,33.22,0,0,1-3.67-4.85c-.51-.83-2.19-2.89-1.95-4,1.09-5,15.83,3.87,17.79,5.06,8.67,5.28,17.5,11.21,24.73,18.38a.08.08,0,0,1,0,.08.1.1,0,0,1,0,.08Z" style="fill:#ebebeb"></path><path d="M186.78,443.26l-.57-.4a.1.1,0,0,0,0-.08c-4.79-3.64-9.87-6.94-15-10.11a148.38,148.38,0,0,0-17-9.56c-.81-.36-4.16-2.37-4.86-1.07s2.78,4.28,3.52,4.94c4.38,3.91,10.08,5.71,15.6,7.32,3.58,1.06,7.1,2.06,10.31,4,2.69,1.66,5.18,3.62,7.85,5.3a.2.2,0,0,0,.16-.15c-1.37-.87-2.69-1.83-4-2.77,1.34.91,2.68,1.84,4,2.76A.17.17,0,0,0,186.78,443.26Zm-12.08-7.38c-5.36-2.1-11.12-3-16.29-5.66a23,23,0,0,1-6.67-5c-.37-.4-2.11-2.15-1.72-2.85.27-.47,1.66,0,1.86,0a39.58,39.58,0,0,1,4.46,2c5.06,2.58,10,5.49,14.78,8.48,2.67,1.66,5.29,3.39,7.89,5.15A25.71,25.71,0,0,0,174.7,435.88Z" style="fill:#fff"></path><path d="M165.46,340.41c.58,4.48-.32,9.16-1.54,13.48-2.84,10-8.31,19.24-10,29.53-.07.4-.13.81-.19,1.21.09.53,0,.4-.15-.22,0,0,0,0,0,0-.75-2.73-3.35-14.8-2.16-23.45.74-5.4,2.6-10.51,4.47-15.6,1.07-2.9,2.11-5.82,3.2-8.72.35-.93.84-3.58,2.25-3.78C164,332.44,165.23,338.65,165.46,340.41Z" style="fill:#ebebeb"></path><path d="M160.74,341.31a.89.89,0,0,0-1.2.32,4.48,4.48,0,0,0-.59,1.76c-.28,1.06-.55,2.12-.82,3.18-1.89,7.3-4.43,14.76-5.14,22.3a62.66,62.66,0,0,0,.54,15c0,.17,0,.33,0,.49s0,0,0,0c.17.62.24.75.15.22.06-.4.12-.81.19-1.21,0-.56,0-1.12.05-1.69a45.93,45.93,0,0,1,2.55-11.33,114,114,0,0,0,5.15-21.53,22.77,22.77,0,0,0,.17-4.95C161.71,343.18,161.53,341.71,160.74,341.31Zm.66,2.36a6.6,6.6,0,0,1,.11,1.09,20.14,20.14,0,0,1-.06,2.33,55.18,55.18,0,0,1-.75,5.59A155.5,155.5,0,0,1,155.59,372a41.74,41.74,0,0,0-2,9.7,83.1,83.1,0,0,1-.41-8.33c0-7.12,2-13.86,3.76-20.69.44-1.69.88-3.39,1.31-5.08.22-.85.44-1.7.65-2.54l.33-1.27c.21-.85.09-1.21,1-1.47C161.42,342,161.24,342.68,161.4,343.67Z" style="fill:#fff"></path><path d="M172.56,382.12a55.75,55.75,0,0,1,2.73,10.23c1.16,7,.08,15.1,1.92,22.07.17.45.31.92.44,1.39,0,.17.1.35.14.52a.09.09,0,0,1-.17.06c-.14-.3-.29-.59-.44-.89h0c-.07-.16-.16-.31-.23-.47-3.47-6.79-7.93-13-9.4-20.62-.91-4.69-2.36-17.62.73-18.61C169.65,375.35,171.81,380.11,172.56,382.12Z" style="fill:#ebebeb"></path><path d="M169.75,382.8c-.74.35-.72,1.8-.76,2.41a28.82,28.82,0,0,0,.17,4.82,48.86,48.86,0,0,0,1.75,8.79,94.85,94.85,0,0,0,6,16.2c.07.16.16.31.23.47h0c.15.3.3.59.44.89a.09.09,0,0,0,.17-.06c0-.17-.09-.35-.14-.52-2.28-6-3.24-12.27-4-18.64C173.45,395.75,172.29,381.6,169.75,382.8Zm2.31,5.74c.22,1.34.41,2.67.58,4,.42,3.13.78,6.27,1.23,9.39A71.25,71.25,0,0,0,176,412.06a118.77,118.77,0,0,1-4.25-11.54,64.45,64.45,0,0,1-1.91-7.87,32.19,32.19,0,0,1-.45-4.38c0-.7-.33-4.75.51-5.1C170.94,382.74,172,388,172.06,388.54Z" style="fill:#fff"></path><path d="M202.14,368.3c1.71,2.11.9,6.3,0,8.51a20,20,0,0,1-6.4,7.75c-3.85,3.05-8.16,5.4-11.4,9.16s-2.19,2.6-4.44,7.38c0,.1-.14.1-.21,0a.93.93,0,0,1-.14-.77.69.69,0,0,1,0-.13c2.08-7.85,6.11-14,11.45-20.16,3-3.48,4.86-7.88,8-11.23C200.19,367.59,201,366.85,202.14,368.3Z" style="fill:#ebebeb"></path><path d="M200.33,372.44c-1.16-.55-2.61,1.79-3.2,2.64a49.45,49.45,0,0,1-5.52,7,58.61,58.61,0,0,0-5.39,5.76,39.2,39.2,0,0,0-5.85,10.52,20.45,20.45,0,0,0-.84,2,.93.93,0,0,0,.14.77l.08-.26a27,27,0,0,1,9.52-12.28c4.41-3.33,8.55-7,10.9-12.15C200.59,375.52,201.4,373,200.33,372.44Zm-.19,3.33a21.35,21.35,0,0,1-1.3,2.57,28.88,28.88,0,0,1-3.11,4.18,48.67,48.67,0,0,1-6.95,6,29.49,29.49,0,0,0-7.25,7.72,40.29,40.29,0,0,1,5.46-8.92c2-2.43,4.41-4.4,6.45-6.76.94-1.1,1.77-2.26,2.6-3.43l1.33-1.91c.4-.56,1.66-2.57,2.5-2.4C201,373,200.3,375.42,200.14,375.77Z" style="fill:#fff"></path><path d="M130.18,348.48c6.95,7.84,13.4,16.09,19.55,24.56a.27.27,0,0,1,0,.33.09.09,0,0,1,0,.06,1,1,0,0,1,.12.16.12.12,0,0,1,0,.16l0,0h0a.16.16,0,0,1-.13,0c-4.33-4.25-8.4-8.22-13.85-11-5-2.56-9.9-4.7-14.23-8.34-3.7-3.12-14.18-18.52-12.47-22.2C110.2,329.7,124.65,342.24,130.18,348.48Z" style="fill:#ebebeb"></path><path d="M121.58,343.24c-.9-.87-3.56-4.32-5.26-3.62s1,4.18,1.51,4.92a50.89,50.89,0,0,0,6.18,7.64c2.34,2.28,5.12,3.8,7.83,5.58,6.66,4.41,12.53,10.13,17.89,16h0l0,0a.12.12,0,0,0,0-.16,1,1,0,0,0-.12-.16.09.09,0,0,0,0-.06C141.35,362.47,131.42,352.8,121.58,343.24ZM149.15,373a113.57,113.57,0,0,0-11.82-11.5c-4.9-4.1-10.81-6.74-15.05-11.61a37.82,37.82,0,0,1-5.55-7.71c-.19-.37-.88-1.62-.41-2.12s1.61.11,3.1,1.48c1.24,1.14,2.42,2.35,3.62,3.53,4.73,4.62,9.44,9.27,14,14.09Q143.36,365.88,149.15,373Z" style="fill:#fff"></path><path d="M159.08,406a.14.14,0,0,1,0,.11.18.18,0,0,1-.23.12l-.67-.21s0,0-.06,0c-5-.64-9,.2-13.77,1.42a22,22,0,0,1-10.75,0,36.83,36.83,0,0,1-10.84-4.9c-1.36-.87-5.73-2.83-5-5.22,1.17-3.94,14.42,1.19,16.71,1.93a105.37,105.37,0,0,0,12.4,3.32c4.15.8,8.3,1.48,12.16,3.29A.12.12,0,0,1,159.08,406Z" style="fill:#ebebeb"></path><path d="M156.45,405.36s0,0,0,0c-2.4-.55-4.79-1.2-7.21-1.62-2.71-.47-5.48-.42-8.2-.88-5.1-.89-9.94-2.73-15-3.85-.66-.15-1.95-.4-1.61.71.14.49.85.88,1.22,1.14a23.34,23.34,0,0,0,3.54,2.09A29.82,29.82,0,0,0,143,406.19c5.43-.25,10.72-1.27,16.09-.12a.14.14,0,0,0,0-.11A16.12,16.12,0,0,0,156.45,405.36Zm-11.77.33a30,30,0,0,1-17.09-4,23.81,23.81,0,0,1-2.19-1.46c-.42-.35-1-1.1.58-.9a9,9,0,0,1,1.11.27c1.3.32,2.59.68,3.88,1.05,2.76.78,5.51,1.61,8.31,2.2a51.72,51.72,0,0,0,7.54.9,60.82,60.82,0,0,1,9.09,1.56C152.21,404.82,148.38,405.39,144.68,405.69Z" style="fill:#fff"></path><path d="M144.77,395.19a.45.45,0,0,1,0,.23.42.42,0,0,1,0,.12.54.54,0,0,1-.09.12l0,0a.35.35,0,0,1-.36,0,16.17,16.17,0,0,1-2.11-1c-8.23-3.14-16.66-6.45-23.36-12.26a54.37,54.37,0,0,1-8.94-10.15c-1.27-1.82-4.74-5.65-3.59-8.21s3.4-.91,4.94.13a117.45,117.45,0,0,1,11.52,8.7,63.87,63.87,0,0,1,9.64,10.48c3.36,4.59,6.59,9.35,12.14,11.44A.43.43,0,0,1,144.77,395.19Z" style="fill:#ebebeb"></path><path d="M129.57,383.56a139.63,139.63,0,0,0-15-13.62c-.68-.55-2.67-2-3-.38-.35,1.87,2.4,4.06,3.44,5.17a106.43,106.43,0,0,0,12.88,11.68,59.31,59.31,0,0,0,16.86,9.13.42.42,0,0,0,0-.12c-10-3.69-18.6-10.17-26.14-17.55-1.81-1.78-3.65-3.58-5.31-5.51-.27-.31-1.79-2.38-1.2-2.95s2.67,1.2,2.92,1.42l3.59,3a164.71,164.71,0,0,1,12.67,12.11,40.32,40.32,0,0,0,13.47,9.49.45.45,0,0,0,0-.23C138.73,392.54,134.07,388.35,129.57,383.56Z" style="fill:#fff"></path><path d="M129.64,309.61a40.09,40.09,0,0,1,6.5,12.33c2,6.95,1.88,14.22,2.88,21.33,0,0,0,.06,0,.08a48.92,48.92,0,0,0,1.13,5.74c.1.4.22.81.34,1.21a.27.27,0,0,1,0,.25.35.35,0,0,1-.16.08.28.28,0,0,1-.18,0h0a.32.32,0,0,1-.19-.19c-.2-.57-.38-1.15-.55-1.72a.18.18,0,0,1-.09-.08c-4.25-8.88-9.07-17.84-13.89-26.62a71.23,71.23,0,0,1-5.49-12.14c-.81-2.5-1.8-6.36,0-8.67a.56.56,0,0,1,.49-.26C124.44,301.62,127.44,306.61,129.64,309.61Z" style="fill:#ebebeb"></path><path d="M125.2,310.18c-1.92-.62-1.53,1.65-1.22,2.8a81.51,81.51,0,0,0,3.39,9c1.35,3.31,2.75,6.61,4.19,9.87,2.73,6.17,6.53,12.31,8.55,18.78,0,0,0,0,0,0h0a.28.28,0,0,0,.18,0,.35.35,0,0,0,.16-.08l-.3-1.46c-.38-1.91-.75-3.83-1.13-5.74,0,0,0-.05,0-.08-1.82-9.21-3.82-18.34-8.65-26.78C129.24,314.53,127.56,310.93,125.2,310.18Zm5.75,8.05a66.76,66.76,0,0,1,6.11,16.87c1.05,4.65,1.77,9.37,2.73,14-1.33-3.75-3.29-7.32-5-10.95q-4-8.55-7.5-17.3c-.57-1.4-1.12-2.81-1.67-4.22-.48-1.25-1.52-3.2-1.52-4.57,0-2.65,2.2-.85,2.92-.07a15.56,15.56,0,0,1,1.61,2.27Q129.88,316.22,131,318.23Z" style="fill:#fff"></path><path d="M188.33,357.49a193,193,0,0,1-5.25,25.64c-2.16,7.72-4.4,15.44-5.45,23.41-1.39,10.59-.44,22.19,5,31.39a124.52,124.52,0,0,1-21.25-35.52c-8.7-21.84-16.57-44.28-27.13-65.31-.18-.35-.66-.08-.53.27,4.33,11.48,9.41,22.68,13.84,34.13s8.47,22.89,13.07,34.18c.5,1.22,1,2.43,1.55,3.62-6.74-8.35-16.62-14.5-26.32-18.07-.12-.05-.17.14-.06.19a68.4,68.4,0,0,1,18.7,12.43c4.83,4.45,8.51,9.61,12.39,14.83A105.16,105.16,0,0,0,203.55,457a.15.15,0,0,0,.15-.25,105.55,105.55,0,0,1-17-14.25c-8.67-11.48-9.08-26.81-6.49-40.74,1.35-7.3,3.29-14.47,5-21.69s3.67-15,3.48-22.53A.21.21,0,0,0,188.33,357.49Z" style="fill:#ebebeb"></path></g><g id="freepik--Rainbow--inject-52"><path d="M197.46,51.78A154.79,154.79,0,0,0,108.09,242.1H140.4l63.14-25.64A56.32,56.32,0,0,1,307.9,174.09L399.21,137A154.78,154.78,0,0,0,197.46,51.78Z" style="fill:#0A58F1"></path><path d="M202.75,64.83A140.7,140.7,0,0,0,122.94,242.1H140.4l63.14-25.64A56.32,56.32,0,0,1,307.9,174.09l78.27-31.77A140.71,140.71,0,0,0,202.75,64.83Z" style="fill:#0A58F1"></path><path d="M202.75,64.83A140.7,140.7,0,0,0,122.94,242.1H140.4l63.14-25.64A56.32,56.32,0,0,1,307.9,174.09l78.27-31.77A140.71,140.71,0,0,0,202.75,64.83Z" style="fill:#fff;opacity:0.2"></path><path d="M147.19,239.34C153,238,158,234,164,232c13-5,27-9,39.54-15.54" style="fill:none"></path><polyline points="399.21 137.02 386.17 142.31 373.12 147.61 360.08 152.91 347.03 158.21 333.99 163.5 320.94 168.8 307.9 174.09" style="fill:none"></polyline><path d="M373.12,147.61,307.9,174.09a56.32,56.32,0,0,0-104.36,42.37l-65.23,26.48a126.71,126.71,0,0,1,234.81-95.33Z" style="fill:#0A58F1"></path><path d="M373.12,147.61,307.9,174.09a56.32,56.32,0,0,0-104.36,42.37l-65.23,26.48a126.71,126.71,0,0,1,234.81-95.33Z" style="fill:#fff;opacity:0.4"></path><path d="M360.08,152.91,307.9,174.09a56.32,56.32,0,0,0-104.36,42.37l-52.18,21.19a112.63,112.63,0,0,1,208.72-84.74Z" style="fill:#0A58F1"></path><path d="M360.08,152.91,307.9,174.09a56.32,56.32,0,0,0-104.36,42.37l-52.18,21.19a112.63,112.63,0,0,1,208.72-84.74Z" style="fill:#fff;opacity:0.5"></path><path d="M347,158.2,307.9,174.09a56.32,56.32,0,0,0-104.36,42.37L164.4,232.35A98.55,98.55,0,0,1,347,158.2Z" style="fill:#0A58F1"></path><path d="M347,158.2,307.9,174.09a56.32,56.32,0,0,0-104.36,42.37L164.4,232.35A98.55,98.55,0,0,1,347,158.2Z" style="fill:#fff;opacity:0.6000000000000001"></path><path d="M334,163.5,307.9,174.09a56.32,56.32,0,0,0-104.36,42.37l-26.09,10.6A84.48,84.48,0,1,1,334,163.5Z" style="fill:#0A58F1"></path><path d="M334,163.5,307.9,174.09a56.32,56.32,0,0,0-104.36,42.37l-26.09,10.6A84.48,84.48,0,1,1,334,163.5Z" style="fill:#fff;opacity:0.7000000000000001"></path><path d="M320.94,168.8l-13,5.29a56.32,56.32,0,0,0-104.36,42.37l-13,5.3a70.4,70.4,0,1,1,130.45-53Z" style="fill:#0A58F1"></path><path d="M320.94,168.8l-13,5.29a56.32,56.32,0,0,0-104.36,42.37l-13,5.3a70.4,70.4,0,1,1,130.45-53Z" style="fill:#fff;opacity:0.8"></path><path d="M470.06,176.19H315.54s34.53-50,61.73-50,35.24,33.35,35.24,33.35,19.2-15.56,37-12.79S470.06,176.19,470.06,176.19Z" style="fill:#0A58F1"></path><path d="M470.06,176.19H315.54s34.53-50,61.73-50,35.24,33.35,35.24,33.35,19.2-15.56,37-12.79S470.06,176.19,470.06,176.19Z" style="fill:#fff;opacity:0.7000000000000001"></path><path d="M242.25,232.46H156s19.26-27.92,34.44-27.92,19.67,18.61,19.67,18.61,10.71-8.68,20.63-7.13S242.25,232.46,242.25,232.46Z" style="fill:#0A58F1"></path><path d="M242.25,232.46H156s19.26-27.92,34.44-27.92,19.67,18.61,19.67,18.61,10.71-8.68,20.63-7.13S242.25,232.46,242.25,232.46Z" style="fill:#fff;opacity:0.9"></path><path d="M196.82,244.63h-135s13.38-36.55,34-36.55,27,25.22,27,25.22,13.9-13.7,25.31-13.7,21.34,18.11,21.34,18.11S185.65,228,196.82,244.63Z" style="fill:#0A58F1"></path><path d="M196.82,244.63h-135s13.38-36.55,34-36.55,27,25.22,27,25.22,13.9-13.7,25.31-13.7,21.34,18.11,21.34,18.11S185.65,228,196.82,244.63Z" style="fill:#fff;opacity:0.7000000000000001"></path><path d="M404.39,187.73h-135s13.39-36.55,34-36.55,27.05,25.23,27.05,25.23,13.89-13.71,25.31-13.71,21.34,18.12,21.34,18.12S393.22,171.08,404.39,187.73Z" style="fill:#0A58F1"></path><path d="M404.39,187.73h-135s13.39-36.55,34-36.55,27.05,25.23,27.05,25.23,13.89-13.71,25.31-13.71,21.34,18.12,21.34,18.12S393.22,171.08,404.39,187.73Z" style="fill:#fff;opacity:0.9"></path></g><g id="freepik--Floor--inject-52"><path d="M69.27,457c115.79-.61,245.68-.62,361.46,0-115.79.62-245.68.61-361.46,0Z" style="fill:#263238"></path></g><g id="freepik--Plants--inject-52"><path d="M415.6,100.21a53.56,53.56,0,0,0-9.43,3.75,48.46,48.46,0,0,0-4.36,2.53,42.08,42.08,0,0,0-4.05,3,39.21,39.21,0,0,0-6.85,7.3,44.67,44.67,0,0,0-4.85,8.89,30.3,30.3,0,0,1,3.93-9.51l.7-1.09c.24-.36.52-.7.77-1,.51-.71,1.09-1.36,1.64-2a38.73,38.73,0,0,1,3.75-3.61,37.7,37.7,0,0,1,8.84-5.4,36.7,36.7,0,0,1,4.87-1.75A29,29,0,0,1,415.6,100.21Z" style="fill:#455a64"></path><path d="M427.31,98.38c.39,3-9.72,7.42-11.48,1.84S426.92,95.33,427.31,98.38Z" style="fill:#0A58F1"></path><path d="M421.49,112.53c-.68,2.74-10.79,3.12-10.43-2.25S422.17,109.8,421.49,112.53Z" style="fill:#0A58F1"></path><path d="M419.1,95.9c.78.21-2.16,3.37-2.16,3.37s5-1,5.3-.14-5,2-5,2,2.82.88,2.69,1.74-4.53-.45-5.16-2.53S418.25,95.67,419.1,95.9Z" style="fill:#455a64"></path><path d="M413.38,114.31c.8-.12-1.78-3.58-1.78-3.58s4.86,1.48,5.25.71-4.76-2.57-4.76-2.57,2.89-.57,2.86-1.44-4.55,0-5.41,2S412.52,114.44,413.38,114.31Z" style="fill:#455a64"></path><path d="M410.65,109.25c-2.63.18-5.14.32-7.67.57-1.26.12-2.52.25-3.79.41s-2.54.34-3.87.43a16.34,16.34,0,0,1,3.64-1.53,20.6,20.6,0,0,1,3.88-.74,21,21,0,0,1,4,0A13.77,13.77,0,0,1,410.65,109.25Z" style="fill:#455a64"></path><path d="M65.33,250.79a53.6,53.6,0,0,0,6.94,7.41,49.28,49.28,0,0,0,3.94,3.14A42.67,42.67,0,0,0,80.45,264a39.2,39.2,0,0,0,9.3,3.71,44.84,44.84,0,0,0,10,1.28,30.41,30.41,0,0,1-10.29-.19l-1.28-.26c-.42-.09-.83-.22-1.25-.33-.85-.22-1.66-.52-2.49-.79a38.86,38.86,0,0,1-4.73-2.17A37.46,37.46,0,0,1,71.51,259a38.13,38.13,0,0,1-3.41-3.89A28.91,28.91,0,0,1,65.33,250.79Z" style="fill:#455a64"></path><path d="M59.36,240.56c2.69-1.48,10.46,6.34,5.9,10S56.67,242,59.36,240.56Z" style="fill:#0A58F1"></path><path d="M74.66,240.81c2.8-.36,6.84,8.91,1.71,10.54S71.87,241.18,74.66,240.81Z" style="fill:#0A58F1"></path><path d="M60.05,249.1c-.09-.8,3.92.78,3.92.78s-2.7-4.3-2.06-4.88,3.73,3.93,3.73,3.93-.21-2.94.64-3.14,1.23,4.38-.48,5.73S60.14,250,60.05,249.1Z" style="fill:#455a64"></path><path d="M79.27,247.71c-.4-.69-2.68,3-2.68,3s-.39-5.07-1.26-5.15-.65,5.37-.65,5.37-1.59-2.49-2.39-2.14,1.62,4.26,3.8,4.32S79.71,248.47,79.27,247.71Z" style="fill:#455a64"></path><path d="M75.55,252.1c1.13,2.38,2.18,4.67,3.33,6.94.58,1.13,1.16,2.26,1.77,3.38s1.24,2.24,1.81,3.44A16.37,16.37,0,0,1,79.71,263a19.4,19.4,0,0,1-2.1-3.35A21.06,21.06,0,0,1,76.16,256,14.37,14.37,0,0,1,75.55,252.1Z" style="fill:#455a64"></path><path d="M411.89,327.75a53.68,53.68,0,0,1-9.68-3.06,49.79,49.79,0,0,1-4.53-2.2,41.65,41.65,0,0,1-4.26-2.67,39.11,39.11,0,0,1-7.36-6.78,45.18,45.18,0,0,1-5.49-8.51,30.35,30.35,0,0,0,4.61,9.2l.79,1c.26.35.56.66.84,1,.56.67,1.18,1.28,1.78,1.9a35.36,35.36,0,0,0,13.22,8.08,39.12,39.12,0,0,0,5,1.39A29.26,29.26,0,0,0,411.89,327.75Z" style="fill:#455a64"></path><path d="M423.7,328.72c.17-3.07-10.23-6.7-11.58-1S423.53,331.78,423.7,328.72Z" style="fill:#0A58F1"></path><path d="M416.86,315c-.88-2.67-11-2.32-10.24,3S417.74,317.7,416.86,315Z" style="fill:#0A58F1"></path><path d="M415.7,331.78c.75-.26-2.4-3.2-2.4-3.2s5,.58,5.29-.25-5.15-1.66-5.15-1.66,2.74-1.09,2.55-1.94-4.48.79-5,2.91S414.87,332.07,415.7,331.78Z" style="fill:#455a64"></path><path d="M408.65,313.84c.8.07-1.51,3.71-1.51,3.71s4.73-1.84,5.18-1.09-4.57,2.9-4.57,2.9,2.93.36,3,1.23-4.54.38-5.54-1.56S407.78,313.77,408.65,313.84Z" style="fill:#455a64"></path><path d="M406.3,319.09c-2.64,0-5.16.06-7.7,0-1.27,0-2.53-.06-3.81-.13s-2.55-.15-3.89-.15a16.08,16.08,0,0,0,3.75,1.26,19.79,19.79,0,0,0,3.92.45,20,20,0,0,0,3.94-.28A14,14,0,0,0,406.3,319.09Z" style="fill:#455a64"></path><path d="M383.44,247a53.34,53.34,0,0,1-3.66,9.47c-.77,1.5-1.58,3-2.49,4.39a40.46,40.46,0,0,1-2.93,4.08,39.18,39.18,0,0,1-7.23,6.92,44.89,44.89,0,0,1-8.85,4.93,30.57,30.57,0,0,0,9.48-4l1.08-.72c.36-.25.69-.52,1-.78.71-.51,1.35-1.1,2-1.66a35.58,35.58,0,0,0,8.9-12.68,38.61,38.61,0,0,0,1.7-4.88A29.11,29.11,0,0,0,383.44,247Z" style="fill:#455a64"></path><path d="M385.16,235.31c-3.05-.36-7.34,9.79-1.73,11.5S388.21,235.68,385.16,235.31Z" style="fill:#0A58F1"></path><path d="M371.06,241.27c-2.73.71-3,10.81,2.35,10.41S373.79,240.56,371.06,241.27Z" style="fill:#0A58F1"></path><path d="M387.71,243.5c-.21-.78-3.34,2.19-3.34,2.19s.89-5,.08-5.3-2,5-2,5-.91-2.81-1.77-2.68.5,4.53,2.59,5.14S388,244.34,387.71,243.5Z" style="fill:#455a64"></path><path d="M369.36,249.39c.11-.79,3.6,1.75,3.6,1.75s-1.53-4.85-.76-5.24,2.61,4.73,2.61,4.73.55-2.9,1.42-2.87.08,4.55-1.91,5.42S369.23,250.26,369.36,249.39Z" style="fill:#455a64"></path><path d="M374.45,252.07c-.15,2.63-.27,5.15-.5,7.68-.11,1.26-.22,2.53-.37,3.8s-.32,2.54-.4,3.87a15.93,15.93,0,0,0,1.5-3.66,20.48,20.48,0,0,0,.7-3.89,20.85,20.85,0,0,0,0-4A14.2,14.2,0,0,0,374.45,252.07Z" style="fill:#455a64"></path><path d="M352.81,279.3a85.1,85.1,0,0,0,20.9-11.56l1.18-.91c.39-.31.76-.64,1.15-1l1.14-1,.57-.48.54-.51c.73-.68,1.46-1.35,2.18-2l2-2.17c2.65-2.95,5-6.18,7.41-9.38s4.79-6.43,7.33-9.55a71.59,71.59,0,0,1,8.28-8.78,48.22,48.22,0,0,1,9.94-6.83,60.85,60.85,0,0,1,11.24-4.26,65.59,65.59,0,0,0-11,4.7,47.49,47.49,0,0,0-9.66,7,78.17,78.17,0,0,0-8.06,8.8c-2.49,3.11-4.87,6.34-7.25,9.55s-4.8,6.43-7.52,9.43l-2.11,2.17c-.73.7-1.48,1.37-2.23,2.05l-.55.51-.59.48-1.17,1-1.18.94-1.22.89A75.27,75.27,0,0,1,352.81,279.3Z" style="fill:#455a64"></path><path d="M388.28,253.37a30.21,30.21,0,0,1,5.77-4.2,43.12,43.12,0,0,1,6.48-3.07,43.61,43.61,0,0,1,6.89-2c1.17-.27,2.36-.4,3.54-.56.59-.09,1.18-.11,1.78-.15s1.19-.07,1.78-.09l-1.74.37c-.58.12-1.17.2-1.74.36-1.15.27-2.31.51-3.44.84l-.85.23c-.28.08-.57.14-.85.23l-1.68.53c-.57.16-1.12.36-1.67.55s-1.12.37-1.66.6l-1.65.63-1.62.69c-1.08.47-2.14,1-3.19,1.49A56,56,0,0,0,388.28,253.37Z" style="fill:#455a64"></path><path d="M414.44,253.08l-3.92-1.64c-.65-.27-1.29-.54-1.95-.79l-1-.39-1-.37c-1.31-.47-2.62-.94-4-1.32a34.19,34.19,0,0,0-4.12-.88,14.1,14.1,0,0,1,4.3.11,23.83,23.83,0,0,1,4.15,1.14,30.42,30.42,0,0,1,3.89,1.79A23.49,23.49,0,0,1,414.44,253.08Z" style="fill:#455a64"></path><path d="M394.73,270.55q-2.67-.84-5.37-1.49c-.9-.2-1.8-.41-2.71-.57s-1.81-.32-2.72-.42a31.39,31.39,0,0,0-5.48-.24,25.2,25.2,0,0,0-2.74.29,24.16,24.16,0,0,0-2.71.64,13.6,13.6,0,0,1,2.6-1.12,17.18,17.18,0,0,1,2.78-.6,22.44,22.44,0,0,1,2.84-.17c.95,0,1.89.09,2.83.19a31.29,31.29,0,0,1,5.52,1.24A26.62,26.62,0,0,1,394.73,270.55Z" style="fill:#455a64"></path><path d="M396.76,258.49c-2,.69-3.92,1.38-5.86,2.11l-1.44.56-1.44.57c-1,.39-1.92.76-2.87,1.18-1.9.79-3.77,1.67-5.63,2.57l-1.39.69-1.37.72-.69.36-.68.38-1.38.73c.4-.32.81-.65,1.23-1l.62-.48.64-.44,1.31-.88,1.34-.8.68-.4.69-.37c.46-.24.92-.5,1.39-.73.94-.45,1.89-.9,2.85-1.31a56.73,56.73,0,0,1,5.89-2.13A41.44,41.44,0,0,1,396.76,258.49Z" style="fill:#455a64"></path><path d="M412.43,219.59a69.73,69.73,0,0,0-5.37,5.51,68.69,68.69,0,0,0-4.72,6,65.64,65.64,0,0,0-4,6.48c-1.26,2.22-2.3,4.56-3.37,6.91a39.63,39.63,0,0,1,2.67-7.27c.52-1.19,1.19-2.3,1.81-3.44.32-.57.69-1.1,1-1.65l.53-.82.55-.8c.39-.52.75-1.06,1.16-1.57l1.2-1.52c.85-1,1.7-2,2.62-2.88A35.76,35.76,0,0,1,412.43,219.59Z" style="fill:#455a64"></path><path d="M399.83,220.29a20.4,20.4,0,0,1,.73,3.94c.07.67.09,1.34.11,2,0,.33,0,.67,0,1s0,.67,0,1a23.28,23.28,0,0,1-.57,4,15.68,15.68,0,0,1-1.4,3.77c.24-1.32.47-2.6.62-3.91s.27-2.59.34-3.9c0-.65.07-1.3.09-2s0-1.31,0-2Z" style="fill:#455a64"></path><path d="M441.44,218.39c1.43,6.37-20.78,4.64-20.78,4.64S440.08,212.27,441.44,218.39Z" style="fill:#455a64"></path><path d="M433,239.07c1.42,6.38-20.78,4.64-20.78,4.64S431.65,233,433,239.07Z" style="fill:#455a64"></path><path d="M407.42,257.25c1.42,6.37-20.78,4.64-20.78,4.64S406.05,251.13,407.42,257.25Z" style="fill:#455a64"></path><path d="M419.61,230c4.6,4.64-15.11,15-15.11,15S415.2,225.57,419.61,230Z" style="fill:#455a64"></path><path d="M388,277.56c-1.53,6.35-20.69-5-20.69-5S389.49,271.46,388,277.56Z" style="fill:#455a64"></path><path d="M397.41,273.58a2.81,2.81,0,1,1,.36-4A2.81,2.81,0,0,1,397.41,273.58Z" style="fill:#0A58F1"></path><path d="M418,255.83a2.81,2.81,0,1,1,.36-4A2.82,2.82,0,0,1,418,255.83Z" style="fill:#0A58F1"></path><path d="M401.24,222.05a2.81,2.81,0,1,1,.35-4A2.82,2.82,0,0,1,401.24,222.05Z" style="fill:#0A58F1"></path><path d="M415.38,220.54a2.81,2.81,0,1,1,.36-4A2.81,2.81,0,0,1,415.38,220.54Z" style="fill:#0A58F1"></path><path d="M181.23,275.47a79.46,79.46,0,0,0-5-10.87,77.84,77.84,0,0,0-6.52-10l-.9-1.19-1-1.14-1-1.15-.48-.57-.51-.54c-.69-.72-1.36-1.46-2-2.17l-2.16-2c-2.95-2.64-6.18-5-9.39-7.41s-6.43-4.78-9.55-7.32a73.15,73.15,0,0,1-8.78-8.29,48.57,48.57,0,0,1-6.82-9.94,60.61,60.61,0,0,1-4.27-11.24,64.92,64.92,0,0,0,4.71,11,48,48,0,0,0,7,9.65,77.23,77.23,0,0,0,8.8,8.06c3.12,2.5,6.34,4.87,9.56,7.26s6.43,4.79,9.43,7.51l2.17,2.11c.69.73,1.36,1.49,2,2.23l.51.56.48.58.95,1.17c.32.4.64.78.94,1.18l.89,1.22A75.69,75.69,0,0,1,181.23,275.47Z" style="fill:#455a64"></path><path d="M155.29,240a31,31,0,0,1-4.2-5.78,43.07,43.07,0,0,1-3.06-6.48,44.74,44.74,0,0,1-2-6.89c-.26-1.16-.4-2.35-.56-3.53-.08-.59-.11-1.19-.15-1.79s-.06-1.18-.08-1.78c.13.59.25,1.17.36,1.75s.21,1.16.36,1.73c.28,1.15.51,2.31.84,3.44l.24.85a8.19,8.19,0,0,0,.23.85l.52,1.69c.16.56.37,1.11.56,1.67s.37,1.11.6,1.65l.63,1.65.69,1.62c.46,1.08,1,2.14,1.49,3.2A58.55,58.55,0,0,0,155.29,240Z" style="fill:#455a64"></path><path d="M155,213.84l-1.64,3.92c-.26.65-.54,1.3-.79,2l-.39,1-.37,1c-.47,1.31-.94,2.63-1.31,4a34.61,34.61,0,0,0-.88,4.12,13.44,13.44,0,0,1,.11-4.29,22.76,22.76,0,0,1,1.14-4.15,30.5,30.5,0,0,1,1.78-3.9A24.27,24.27,0,0,1,155,213.84Z" style="fill:#455a64"></path><path d="M172.47,233.55c-.56,1.79-1.05,3.57-1.48,5.37-.21.9-.42,1.8-.57,2.71s-.32,1.81-.43,2.72a32.44,32.44,0,0,0-.24,5.48c.06.92.15,1.83.3,2.74a23.66,23.66,0,0,0,.64,2.71,14.21,14.21,0,0,1-1.13-2.59,18.86,18.86,0,0,1-.6-2.78,22.69,22.69,0,0,1-.16-2.85,26.9,26.9,0,0,1,.19-2.83,30.42,30.42,0,0,1,1.24-5.52A26.58,26.58,0,0,1,172.47,233.55Z" style="fill:#455a64"></path><path d="M160.42,231.52q1,3,2.11,5.86c.19.48.37,1,.55,1.45l.57,1.44c.39.95.76,1.92,1.19,2.86.79,1.9,1.67,3.77,2.57,5.63l.69,1.39.72,1.37.35.7.38.67c.25.46.5.92.74,1.38-.33-.4-.65-.81-1-1.22l-.48-.63-.45-.64-.87-1.3-.81-1.35-.4-.67-.36-.7c-.25-.46-.5-.92-.73-1.39-.46-.94-.91-1.88-1.31-2.85a55.9,55.9,0,0,1-2.13-5.89A41.16,41.16,0,0,1,160.42,231.52Z" style="fill:#455a64"></path><path d="M121.52,215.85A70.71,70.71,0,0,0,133,225.94a64.63,64.63,0,0,0,6.49,4.05c2.22,1.27,4.56,2.3,6.91,3.38a39.4,39.4,0,0,1-7.27-2.68c-1.19-.52-2.31-1.19-3.45-1.81-.56-.32-1.09-.69-1.65-1l-.82-.52-.79-.56c-.52-.39-1.06-.75-1.57-1.15l-1.52-1.21c-1-.85-2-1.7-2.88-2.61A35.27,35.27,0,0,1,121.52,215.85Z" style="fill:#455a64"></path><path d="M122.22,228.45a20.26,20.26,0,0,1,3.94-.73c.67-.06,1.33-.09,2-.11.34,0,.67,0,1,0s.67,0,1,0a23.37,23.37,0,0,1,4,.56,15.68,15.68,0,0,1,3.77,1.4c-1.33-.23-2.61-.46-3.91-.62s-2.6-.26-3.9-.33c-.65,0-1.31-.08-2-.09s-1.31,0-2-.06Z" style="fill:#455a64"></path><path d="M120.32,186.84c6.37-1.42,4.63,20.78,4.63,20.78S114.2,188.21,120.32,186.84Z" style="fill:#455a64"></path><path d="M141,195.27c6.37-1.43,4.64,20.77,4.64,20.77S134.88,196.63,141,195.27Z" style="fill:#455a64"></path><path d="M159.17,220.86c6.38-1.42,4.64,20.78,4.64,20.78S153.05,222.23,159.17,220.86Z" style="fill:#455a64"></path><path d="M132,208.67c4.64-4.6,15,15.11,15,15.11S127.5,213.08,132,208.67Z" style="fill:#455a64"></path><path d="M179.48,240.26c6.35,1.53-5,20.7-5,20.7S173.39,238.79,179.48,240.26Z" style="fill:#455a64"></path><path d="M175.51,230.87a2.81,2.81,0,1,1-4-.36A2.82,2.82,0,0,1,175.51,230.87Z" style="fill:#0A58F1"></path><path d="M157.75,210.29a2.81,2.81,0,1,1-4-.36A2.81,2.81,0,0,1,157.75,210.29Z" style="fill:#0A58F1"></path><path d="M124,227.05a2.81,2.81,0,1,1-4-.36A2.82,2.82,0,0,1,124,227.05Z" style="fill:#0A58F1"></path><path d="M122.47,212.9a2.81,2.81,0,1,1-4-.36A2.82,2.82,0,0,1,122.47,212.9Z" style="fill:#0A58F1"></path></g><g id="freepik--Unicorn--inject-52"><path d="M372.21,135.12c3.13-.49,54.53-62.08,54.31-65.29s-66.06,55-65.95,57.09S367.22,135.9,372.21,135.12Z" style="fill:#0A58F1"></path><path d="M372.21,135.12c3.13-.49,54.53-62.08,54.31-65.29s-66.06,55-65.95,57.09S367.22,135.9,372.21,135.12Z" style="fill:#fff;opacity:0.5"></path><path d="M360.65,127.31c2.7-1,5.77-.44,8.38.6s4.84,2.6,7.73,3c-2.85.4-5.56-1-8.1-2.11a17.69,17.69,0,0,0-8-1.53Z" style="fill:#0A58F1"></path><path d="M367.12,120.09a14.41,14.41,0,0,1,8.41.64c2.68.94,4.93,2.48,7.78,3-2.85.3-5.51-1.17-8.11-2.07a25.33,25.33,0,0,0-8.08-1.58Z" style="fill:#0A58F1"></path><path d="M374.8,113a14.87,14.87,0,0,1,7.7.7c2.48.8,4.58,2.2,7.13,2.81-2.62.2-5-1.1-7.45-1.86A32,32,0,0,0,374.8,113Z" style="fill:#0A58F1"></path><path d="M382.65,105.89a11.23,11.23,0,0,1,6.94.44c2.21.76,4,2.19,6.26,2.86-2.36.14-4.46-1.22-6.6-1.92a22.06,22.06,0,0,0-6.6-1.38Z" style="fill:#0A58F1"></path><path d="M390.58,98.86c4.09-1.14,7.91,1.24,11.41,3-2,0-3.85-1.06-5.72-1.64a26.7,26.7,0,0,0-5.69-1.36Z" style="fill:#0A58F1"></path><path d="M398.59,91.87a9.77,9.77,0,0,1,5,.4,20.67,20.67,0,0,1,4.48,2.19,9.61,9.61,0,0,1-2.46-.51c-2.28-.71-4.66-1.51-7-2.08Z" style="fill:#0A58F1"></path><path d="M406.69,84.93a4.36,4.36,0,0,1,4.05,0c1.27.54,2.11,1.54,3.35,2.08a3.27,3.27,0,0,1-2-.35,12.57,12.57,0,0,0-5.38-1.72Z" style="fill:#0A58F1"></path><path d="M420,79.48c-.82.61-1.94.07-2.73-.28a23.87,23.87,0,0,0-2.32-1.15,2.28,2.28,0,0,1,1.43-.19c1.42.17,2.3,1.25,3.62,1.62Z" style="fill:#0A58F1"></path><path d="M425.5,71.86a1.24,1.24,0,0,1-1.93-.56,1.25,1.25,0,0,1,1.93.56Z" style="fill:#0A58F1"></path><path d="M175.08,251.76S163,240,158.59,237.92s-39.62-3.79-53.08,1S68,285.31,69.87,308.25,94.14,335.55,96,356.59s-9.29,30.33-16.3,29.57-9.1-8.15-7-16.49c0,0-6.35,6.57-4.36,15.54,1.14,5.12,10.05,11.94,17.82,11.38s35.31-19.2,42.85-38.68c2.27-5.87.94-27.48-.57-32.41s-11.76-22.75-11.76-27.87,1.7-25,4.83-28.81,25.5-15,32.9-15.17,13.65,4.55,13.65,4.55Z" style="fill:#0A58F1"></path><path d="M121.52,268.82c-3.12,3.79-4.82,23.7-4.82,28.82s10.24,22.93,11.75,27.86,2.84,26.54.57,32.42a38.29,38.29,0,0,1-2.16,4.61,33.24,33.24,0,0,0-.62-24.71c-2.41-5.68-16.82-17.56-19.46-24.39S108.42,278,111.06,272s15.93-16.3,19.09-18.19,23.63-3.54,27.17-2.15c2.93,1.16,8.34,4.88,10.15,6.15-1.74-1.15-7-4.29-13.05-4.13C147,253.85,124.65,265,121.52,268.82Z" style="opacity:0.1"></path><path d="M96.92,375.86c-2.79,4.3-9.2,8.06-11.54,9,6.06-3.22,12.08-12.41,10.65-28.29-1.9-21-24.26-25.4-26.16-48.34-1.42-17.31,11.92-45.28,24.33-60l0,0c-7.54,10.39-21.2,39.57-18.79,54.1s23.12,36.9,26,46.63S99.7,371.56,96.92,375.86Z" style="opacity:0.1"></path><path d="M366,113.2,362.87,130c-37.91,8.59-18.95,19.33-45.55,61.9S252.57,234,252.57,234c29.24-7.35,39.36-30.53,44.75-51.85L305,188l-7.17-7.94c.54-2.27,1-4.52,1.5-6.71l8.79,9.83-7.46-16.09c5.27-23.84,12.93-41.44,37.26-51.08A50.9,50.9,0,0,1,366,113.2Z" style="fill:#0A58F1"></path><path d="M364.35,122.07,362.86,130c-37.91,8.59-18.95,19.33-45.55,61.9C291.15,233.68,253.86,234,252.59,234c28.82-2.88,49.33-31,54.43-43.26s6.15-37.74,11.81-48.22,22.78-17.29,29.59-19.94C353.06,120.82,360.24,121.47,364.35,122.07Z" style="opacity:0.1"></path><path d="M297.54,286.36s20.06,17.15,27.83,17.37,46.3-18.12,46.3-18.12-11.54,10.86-12,12.34.41,6.69-.43,7.36-5.33-.33-6.57-.6-4.45-2.53-6.91-2.17-24.13,13.66-26,26.24c-.49,3.26,32.48-3.95,34.61-4.73s11.25-1.31,12.43-2.71,3.74-6.1,5.61-8.06,41.41-31.56,43.71-33.86S422.67,277,424,272s-.53-16.29-7.58-19.22c-5-2.09-6.31.45-22.07,1-16.58.59-35.76-.08-37.86,1.14S297.54,286.36,297.54,286.36Z" style="fill:#0A58F1"></path><path d="M297.54,286.36s20.06,17.15,27.83,17.37,46.3-18.12,46.3-18.12-11.54,10.86-12,12.34.41,6.69-.43,7.36-5.33-.33-6.57-.6-4.45-2.53-6.91-2.17-24.13,13.66-26,26.24c-.49,3.26,32.48-3.95,34.61-4.73s11.25-1.31,12.43-2.71,3.74-6.1,5.61-8.06,41.41-31.56,43.71-33.86S422.67,277,424,272s-.53-16.29-7.58-19.22c-5-2.09-6.31.45-22.07,1-16.58.59-35.76-.08-37.86,1.14S297.54,286.36,297.54,286.36Z" style="fill:#fff;opacity:0.4"></path><path d="M343.1,324.46a8.58,8.58,0,0,0,5.06,1.09c-10.12,2.2-28.74,5.68-28.37,3.22,1.88-12.58,23.54-25.86,26-26.23s5.66,1.9,6.91,2.17l.19,0C350.16,306.17,340.16,322.8,343.1,324.46Z" style="fill:#0A58F1"></path><path d="M343.1,324.46a8.58,8.58,0,0,0,5.06,1.09c-10.12,2.2-28.74,5.68-28.37,3.22,1.88-12.58,23.54-25.86,26-26.23s5.66,1.9,6.91,2.17l.19,0C350.16,306.17,340.16,322.8,343.1,324.46Z" style="opacity:0.30000000000000004"></path><path d="M154.12,293.56c-2.74,17.3,3.56,38.41,3.29,41.28s-3.09,12.88-6.08,15.58-17.5,9.05-18,10.48,1.5,13.33,1.44,16.61-2.86,19.59-4.64,22.57-12.88,3.78-14.94,4-4.5,13.4-6.28,13.94a7.75,7.75,0,0,1-4.8-.07c-1.18-.45-1.56-2.21-3.41-3.2s-15,4.48-23.08,23.87c-1.15,2.75-1.31,9.05-.42,9.29s26.29-12.6,26.81-13.19,4.28-2.8,5.16-3.5S137,417.8,140,414.94s17.61-35.69,21.22-39,47.44-12.42,53.58-21.15,6.77-31.06,4.35-38.56S158.94,263.12,154.12,293.56Z" style="fill:#0A58F1"></path><path d="M154.12,293.56c-2.74,17.3,3.56,38.41,3.29,41.28s-3.09,12.88-6.08,15.58-17.5,9.05-18,10.48,1.5,13.33,1.44,16.61-2.86,19.59-4.64,22.57-12.88,3.78-14.94,4-4.5,13.4-6.28,13.94a7.75,7.75,0,0,1-4.8-.07c-1.18-.45-1.56-2.21-3.41-3.2s-15,4.48-23.08,23.87c-1.15,2.75-1.31,9.05-.42,9.29s26.29-12.6,26.81-13.19,4.28-2.8,5.16-3.5S137,417.8,140,414.94s17.61-35.69,21.22-39,47.44-12.42,53.58-21.15,6.77-31.06,4.35-38.56S158.94,263.12,154.12,293.56Z" style="fill:#fff;opacity:0.4"></path><path d="M104,434.73c-.52.58-25.92,13.42-26.81,13.19s-.73-6.54.42-9.3c8.08-19.38,21.23-24.86,23.08-23.86s2.23,2.74,3.41,3.2c0,0-6.26,8.76-4.27,15C100.66,435.49,104,434.73,104,434.73Z" style="fill:#0A58F1"></path><path d="M104,434.73c-.52.58-25.92,13.42-26.81,13.19s-.73-6.54.42-9.3c8.08-19.38,21.23-24.86,23.08-23.86s2.23,2.74,3.41,3.2c0,0-6.26,8.76-4.27,15C100.66,435.49,104,434.73,104,434.73Z" style="opacity:0.30000000000000004"></path><path d="M397,157.93c5.44,9.75,18.34,30.62,25.11,36.91,2.33,2.16,8.32,3,9.65,4.82s-1.83,5.65-1.67,7.82,1.75,11.14,1,12.55-7.4,5.57-9.73,5.57-7.89-3.66-8.89-3.49-4.08.91-5.24.16-19.95-19.7-21.61-20.45-20.12-.16-25.36-1.33-8.15-6-8.15-6-2,20,0,32.59,18.29,28.59,17.79,39.07-45,66.49-65.51,72.66c-29.26,8.81-72.16-2.49-79-1.83s-68.17-1.16-71.66-22.61,5-42.4,10.31-53.87,20.12-20.12,37.41-22.12,51.71-1,72-10.14S309.66,194.17,314,184.2s3.65-26.94,13.13-40.24,31.59-15.63,45.23-13.13S390.07,145.56,397,157.93Z" style="fill:#0A58F1"></path><path d="M397,157.93c5.44,9.75,18.34,30.62,25.11,36.91,2.33,2.16,8.32,3,9.65,4.82s-1.83,5.65-1.67,7.82,1.75,11.14,1,12.55-7.4,5.57-9.73,5.57-7.89-3.66-8.89-3.49-4.08.91-5.24.16-19.95-19.7-21.61-20.45-20.12-.16-25.36-1.33-8.15-6-8.15-6-2,20,0,32.59,18.29,28.59,17.79,39.07-45,66.49-65.51,72.66c-29.26,8.81-72.16-2.49-79-1.83s-68.17-1.16-71.66-22.61,5-42.4,10.31-53.87,20.12-20.12,37.41-22.12,51.71-1,72-10.14S309.66,194.17,314,184.2s3.65-26.94,13.13-40.24,31.59-15.63,45.23-13.13S390.07,145.56,397,157.93Z" style="fill:#fff;opacity:0.8"></path><path d="M348.48,299.47c-14.46,17.63-32.91,36-44.14,39.36-22.75,6.85-53.76,1.54-69.62-.85,5.26.78,46.56,3.16,62-1.51S332.93,314.36,348.48,299.47Z" style="fill:#0A58F1;opacity:0.30000000000000004"></path><path d="M406.57,221.75c-3.47-3.16-19.47-19.24-21-19.93s-20.12-.16-25.36-1.33c-4.91-1.09-7.78-5.39-8.12-5.93l0-.05a19.06,19.06,0,0,1-1.51-16.44s6.57,17.71,12.66,19.71c4.42,1.45,22.4,1.77,23.73,2.38C388.08,200.68,402.53,217.13,406.57,221.75Z" style="fill:#0A58F1;opacity:0.30000000000000004"></path><path d="M152.88,304c.23,17.52,10,37.25,10.24,40.13s-.86,13.22-3.35,16.38-15.71,11.89-16,13.38,3.74,12.89,4.24,16.13.5,19.79-.75,23-12.06,5.9-14.05,6.48-2.16,14-3.82,14.8a7.8,7.8,0,0,1-4.74.75c-1.25-.25-1.92-1.91-3.91-2.58s-14,7-18.71,27.44c-.66,2.91.25,9.14,1.17,9.23s23.77-16.88,24.19-17.55,3.74-3.49,4.49-4.32,25.19-18,27.6-21.28,11.31-38.16,14.3-42.07S218.46,363.69,223,354s1.41-31.75-2.25-38.74S152.48,273.21,152.88,304Z" style="fill:#0A58F1"></path><path d="M152.88,304c.23,17.52,10,37.25,10.24,40.13s-.86,13.22-3.35,16.38-15.71,11.89-16,13.38,3.74,12.89,4.24,16.13.5,19.79-.75,23-12.06,5.9-14.05,6.48-2.16,14-3.82,14.8a7.8,7.8,0,0,1-4.74.75c-1.25-.25-1.92-1.91-3.91-2.58s-14,7-18.71,27.44c-.66,2.91.25,9.14,1.17,9.23s23.77-16.88,24.19-17.55,3.74-3.49,4.49-4.32,25.19-18,27.6-21.28,11.31-38.16,14.3-42.07S218.46,363.69,223,354s1.41-31.75-2.25-38.74S152.48,273.21,152.88,304Z" style="fill:#fff;opacity:0.8"></path><path d="M127.51,451.52l-.08.12c-.42.67-23.28,17.63-24.19,17.54s-1.83-6.32-1.17-9.23c4.68-20.47,16.71-28.1,18.71-27.43s2.6,2.19,3.75,2.54c-.4.88-4.33,10-1.36,15.46C124.32,452.61,127,451.72,127.51,451.52Z" style="fill:#0A58F1"></path><path d="M127.51,451.52l-.08.12c-.42.67-23.28,17.63-24.19,17.54s-1.83-6.32-1.17-9.23c4.68-20.47,16.71-28.1,18.71-27.43s2.6,2.19,3.75,2.54c-.4.88-4.33,10-1.36,15.46C124.32,452.61,127,451.72,127.51,451.52Z" style="opacity:0.30000000000000004"></path><path d="M308.37,313.22s21.82,14.84,29.56,14.21,44-23.1,44-23.1-10.28,12.06-10.54,13.58,1.15,6.6.39,7.36-5.33.26-6.6.13-4.7-2-7.11-1.4-22.48,16.22-23,28.94c-.13,3.3,31.85-7.49,33.88-8.51s11-2.53,12.06-4.06,3-6.47,4.69-8.63,37.69-35.91,39.72-38.45,6.22-3.17,7-8.24-2.31-16.13-9.64-18.28c-5.2-1.52-6.22,1.14-21.83,3.43-16.42,2.4-35.55,3.84-37.5,5.28S308.37,313.22,308.37,313.22Z" style="fill:#0A58F1"></path><path d="M308.37,313.22s21.82,14.84,29.56,14.21,44-23.1,44-23.1-10.28,12.06-10.54,13.58,1.15,6.6.39,7.36-5.33.26-6.6.13-4.7-2-7.11-1.4-22.48,16.22-23,28.94c-.13,3.3,31.85-7.49,33.88-8.51s11-2.53,12.06-4.06,3-6.47,4.69-8.63,37.69-35.91,39.72-38.45,6.22-3.17,7-8.24-2.31-16.13-9.64-18.28c-5.2-1.52-6.22,1.14-21.83,3.43-16.42,2.4-35.55,3.84-37.5,5.28S308.37,313.22,308.37,313.22Z" style="fill:#fff;opacity:0.8"></path><path d="M359.1,346a8,8,0,0,0,4.28.44c-9.71,3.29-28.34,9-28.24,6.46.49-12.71,20.56-28.3,23-28.93s5.84,1.27,7.11,1.4l.92.09C363.77,326.84,356,344.79,359.1,346Z" style="fill:#0A58F1"></path><path d="M359.1,346a8,8,0,0,0,4.28.44c-9.71,3.29-28.34,9-28.24,6.46.49-12.71,20.56-28.3,23-28.93s5.84,1.27,7.11,1.4l.92.09C363.77,326.84,356,344.79,359.1,346Z" style="opacity:0.30000000000000004"></path><path d="M372,115.92c-8.08,6.54-8.42,26.16,7.21,28.26,5,.68,7.95-5.74,11.72-5.29s-3.4,7.29-.19,15.71c2.62,6.85,12.42,8.09,17.4,4,5.63-4.63,3.11-12.08,3.11-12.08s-.22,5.76-3,6.54-5.66-1.33-4.66-5.21,7.65-12.3,7-22-9.14-13.59-14.63-14.52C384.71,109.49,372,115.92,372,115.92Z" style="fill:#0A58F1"></path><path d="M406,153.05c-.58-.13-3-.77-3.78-5-.47-2.63,5.57-12.75,5-16.06s-4.13-11.54-11.56-13.53c-5.65-1.52-20.92,1.82-27.89,3.5a14.38,14.38,0,0,1,4.2-6.09s12.76-6.44,23.95-4.55c5.49.92,14,4.88,14.63,14.52s-6,18.07-7,22C402.83,150.64,404.13,152.52,406,153.05Z" style="opacity:0.1"></path><path d="M397.46,160.45a9.81,9.81,0,0,1-6.77-5.85c-3.21-8.43,4-15.27.19-15.71s-6.68,6-11.72,5.29a15.54,15.54,0,0,1-5.73-1.88c3.84-2.13,12.55-6.82,15.12-6.87,3.32-.07,6.54,1.22,6.54,3.95S385.63,154.06,397.46,160.45Z" style="opacity:0.1"></path><path d="M353.17,139.86c.17-1.39-2.16-3.33-2.66-5.76a14.1,14.1,0,0,1,1.33-8.15c1.22-2.72,11.69-12.14,14.24-16,1.75-2.66,2.46-5.93,3.5-5.93,1.88,0-.45,24.94-.89,28.49s-4.21,6.43-4.21,6.43Z" style="fill:#0A58F1"></path><path d="M353.17,139.86c.17-1.39-2.16-3.33-2.66-5.76a14.1,14.1,0,0,1,1.33-8.15c1.22-2.72,11.69-12.14,14.24-16,1.75-2.66,2.46-5.93,3.5-5.93,1.88,0-.45,24.94-.89,28.49s-4.21,6.43-4.21,6.43Z" style="fill:#fff;opacity:0.8"></path><path d="M352.06,194.51c-6.86-7.71-3-19.53,3.41-26.27-.42,1.12-1,2.16-1.4,3.24-3.32,7.24-5.46,15.41-2,23Z" style="fill:#0A58F1"></path><path d="M326.17,323.72a30.78,30.78,0,0,1-17.1-8.16,79,79,0,0,1,17.1,8.16Z" style="fill:#0A58F1"></path><path d="M366.36,274.56a50.41,50.41,0,0,1-6.51,11.67,51.19,51.19,0,0,1-8.92,9.95,171.84,171.84,0,0,1,15.43-21.62Z" style="fill:#0A58F1"></path><path d="M359.69,290.59c1.23-4.19,2.81-8.06,4.34-12.15a23.33,23.33,0,0,1-4.34,12.15Z" style="fill:#0A58F1"></path><path d="M381.17,305c3.2-2.52,6.95-4.69,10.3-6.95,3.12-2.6,5.74-5.87,8.84-8.53a15.82,15.82,0,0,1,2.92-2.15c-3.49,4.16-6.26,8.9-10.63,12.28A54.63,54.63,0,0,1,381.17,305Z" style="fill:#0A58F1"></path><path d="M225.36,337c-1.1-7.75-2.27-15.58-2.82-23.36A38.26,38.26,0,0,1,225.36,337Z" style="fill:#0A58F1"></path><path d="M226.69,317.05a20.06,20.06,0,0,1-1.56,11.63,113.56,113.56,0,0,1,1.56-11.63Z" style="fill:#0A58F1"></path><path d="M350.34,131a14.77,14.77,0,0,0,1.67,5.49c.65.94,1.55,2.08,1.39,3.33a11,11,0,0,0-2.18-2.81,6.75,6.75,0,0,1-.88-6Z" style="fill:#0A58F1"></path><path d="M359.82,135.43c-4.81-4.85-1.2-8.77,2.12-13a31.56,31.56,0,0,0,5.55-9.19,27.32,27.32,0,0,0,1.14-3.45,22.74,22.74,0,0,1-1.93,7.06c-1.85,4.51-5.93,7.81-8.15,12-1.19,2.24,0,4.61,1.27,6.55Z" style="fill:#0A58F1"></path><path d="M418.56,206.08c.46,2.7.09,5.72,1.17,8.14.14.17,0,0-.21.06s-.07,0-.07.06c.26-1.11-.5-2.88-.75-4.38,1.33,1.23,2.64,2.76,2.55,4.74a1.7,1.7,0,0,1-2.48,1.29c-2.61-2-1.39-7.38-.21-9.91Z" style="fill:#0A58F1"></path><path d="M380.54,175.92c2.45,3.83,5.85,12.34,10.9,12.33,2.24,0,3.95-1.67,5-3.59a14,14,0,0,0,1.38-3.32,9.24,9.24,0,0,1-2.49,7.07c-7.88,6.44-13.79-6.08-14.8-12.49Z" style="fill:#263238"></path><path d="M189.5,282c-2.14-3.64-8.63-5.3-13.07-8.58-3.69-2.73-3.11-9.53-1.89-10.57,2.36-2,5.58.17,9.09,5.21,0,0-2-8.78,2-9.81,3-.79,6.48,4.28,6.07,9-.27,3.06-2,6.19-2.33,10.23A14.16,14.16,0,0,0,189.5,282Z" style="fill:#0A58F1"></path><path d="M185.24,290.93c-2.16-1.12-5.84.07-9-.17-2.64-.2-4.44-3.69-4.17-4.58.53-1.71,2.78-1.63,6-.25,0,0-3.66-3.67-2-5.4,1.24-1.32,4.48.1,5.72,2.52.81,1.58.91,3.65,2,5.71A8.27,8.27,0,0,0,185.24,290.93Z" style="fill:#0A58F1"></path><path d="M197.69,272.17c0-1.48-1.59-3.16-2.31-4.94a3.18,3.18,0,0,1,1.37-3.49c1.07-.17,1.63,1.07,1.75,3.21,0,0,1-3,2.39-2.54,1,.32,1.14,2.45.16,3.77-.64.86-1.74,1.47-2.57,2.61A4.83,4.83,0,0,0,197.69,272.17Z" style="fill:#0A58F1"></path></g><g id="freepik--Sparkles--inject-52"><polygon points="101.93 152.72 108.04 151.59 109.41 145.16 110.77 151.59 116.88 152.73 110.8 154.21 109.41 160.29 108.02 154.21 101.93 152.72" style="fill:#0A58F1"></polygon><polygon points="101.47 261.66 107.58 260.53 108.94 254.09 110.31 260.53 116.42 261.67 110.33 263.15 108.94 269.24 107.55 263.15 101.47 261.66" style="fill:#0A58F1"></polygon><polygon points="334.01 127.06 340.12 125.94 341.48 119.5 342.85 125.94 348.96 127.07 342.88 128.55 341.48 134.64 340.09 128.55 334.01 127.06" style="fill:#0A58F1"></polygon><polygon points="375.86 305.46 381.97 304.33 383.33 297.89 384.7 304.33 390.81 305.47 384.72 306.95 383.33 313.03 381.94 306.95 375.86 305.46" style="fill:#0A58F1"></polygon><polygon points="234.78 68.52 240.88 67.39 242.25 60.95 243.61 67.39 249.72 68.52 243.64 70 242.25 76.09 240.86 70 234.78 68.52" style="fill:#0A58F1"></polygon><polygon points="75.85 300.37 79.27 299.74 80.03 296.14 80.79 299.74 84.21 300.37 80.81 301.2 80.03 304.6 79.25 301.2 75.85 300.37" style="fill:#0A58F1"></polygon><polygon points="278.33 124.85 281.75 124.22 282.51 120.62 283.27 124.22 286.69 124.86 283.29 125.69 282.51 129.09 281.73 125.69 278.33 124.85" style="fill:#0A58F1"></polygon><polygon points="160.85 187.51 164.27 186.88 165.03 183.28 165.79 186.88 169.21 187.52 165.81 188.35 165.03 191.75 164.25 188.35 160.85 187.51" style="fill:#0A58F1"></polygon><polygon points="415.79 79.53 419.21 78.9 419.97 75.31 420.73 78.9 424.15 79.54 420.75 80.37 419.97 83.77 419.19 80.37 415.79 79.53" style="fill:#0A58F1"></polygon><polygon points="370.48 269.23 373.89 268.6 374.65 265 375.42 268.6 378.83 269.23 375.43 270.06 374.65 273.46 373.88 270.06 370.48 269.23" style="fill:#0A58F1"></polygon><polygon points="309.3 173.21 312.71 172.57 313.47 168.97 314.24 172.57 317.65 173.21 314.25 174.04 313.47 177.44 312.69 174.04 309.3 173.21" style="fill:#0A58F1"></polygon><polygon points="337.31 342.2 340.72 341.57 341.48 337.97 342.25 341.57 345.66 342.21 342.26 343.04 341.48 346.44 340.71 343.04 337.31 342.2" style="fill:#0A58F1"></polygon><polygon points="132.53 396.62 135.94 395.99 136.71 392.39 137.47 395.99 140.88 396.62 137.48 397.45 136.71 400.85 135.93 397.45 132.53 396.62" style="fill:#0A58F1"></polygon><path d="M143,387.85a1,1,0,0,0,0-2A1,1,0,0,0,143,387.85Z" style="fill:#0A58F1"></path><path d="M396,297.17a1,1,0,0,0,0-2A1,1,0,0,0,396,297.17Z" style="fill:#0A58F1"></path><path d="M141.78,98.12a1,1,0,0,0,0-2A1,1,0,0,0,141.78,98.12Z" style="fill:#0A58F1"></path><path d="M390.2,130.49a1,1,0,0,0,0-2A1,1,0,0,0,390.2,130.49Z" style="fill:#0A58F1"></path><path d="M102.78,287.31a.71.71,0,0,0,0-1.41A.71.71,0,0,0,102.78,287.31Z" style="fill:#0A58F1"></path><path d="M292.86,117.88a.7.7,0,0,0,0-1.4A.7.7,0,0,0,292.86,117.88Z" style="fill:#0A58F1"></path><path d="M384.2,257.46a.7.7,0,0,0,0-1.4A.7.7,0,0,0,384.2,257.46Z" style="fill:#0A58F1"></path><path d="M326.67,67.4a.7.7,0,0,0,0-1.4A.7.7,0,0,0,326.67,67.4Z" style="fill:#0A58F1"></path><path d="M160.86,248.21a1.9,1.9,0,0,0,0-3.79A1.9,1.9,0,0,0,160.86,248.21Z" style="fill:#0A58F1"></path><path d="M397.83,138.92c2.44,0,2.44-3.8,0-3.8A1.9,1.9,0,0,0,397.83,138.92Z" style="fill:#0A58F1"></path><polygon points="101.93 152.72 108.04 151.59 109.41 145.16 110.77 151.59 116.88 152.73 110.8 154.21 109.41 160.29 108.02 154.21 101.93 152.72" style="fill:#fff"></polygon><polygon points="101.47 261.66 107.58 260.53 108.94 254.09 110.31 260.53 116.42 261.67 110.33 263.15 108.94 269.24 107.55 263.15 101.47 261.66" style="fill:#fff"></polygon><polygon points="334.01 127.06 340.12 125.94 341.48 119.5 342.85 125.94 348.96 127.07 342.88 128.55 341.48 134.64 340.09 128.55 334.01 127.06" style="fill:#fff"></polygon><polygon points="375.86 305.46 381.97 304.33 383.33 297.89 384.7 304.33 390.81 305.47 384.72 306.95 383.33 313.03 381.94 306.95 375.86 305.46" style="fill:#fff"></polygon><polygon points="234.78 68.52 240.88 67.39 242.25 60.95 243.61 67.39 249.72 68.52 243.64 70 242.25 76.09 240.86 70 234.78 68.52" style="fill:#fff"></polygon><polygon points="75.85 300.37 79.27 299.74 80.03 296.14 80.79 299.74 84.21 300.37 80.81 301.2 80.03 304.6 79.25 301.2 75.85 300.37" style="fill:#fff"></polygon><polygon points="278.33 124.85 281.75 124.22 282.51 120.62 283.27 124.22 286.69 124.86 283.29 125.69 282.51 129.09 281.73 125.69 278.33 124.85" style="fill:#fff"></polygon><polygon points="160.85 187.51 164.27 186.88 165.03 183.28 165.79 186.88 169.21 187.52 165.81 188.35 165.03 191.75 164.25 188.35 160.85 187.51" style="fill:#fff"></polygon><polygon points="415.79 79.53 419.21 78.9 419.97 75.31 420.73 78.9 424.15 79.54 420.75 80.37 419.97 83.77 419.19 80.37 415.79 79.53" style="fill:#fff"></polygon><polygon points="370.48 269.23 373.89 268.6 374.65 265 375.42 268.6 378.83 269.23 375.43 270.06 374.65 273.46 373.88 270.06 370.48 269.23" style="fill:#fff"></polygon><polygon points="309.3 173.21 312.71 172.57 313.47 168.97 314.24 172.57 317.65 173.21 314.25 174.04 313.47 177.44 312.69 174.04 309.3 173.21" style="fill:#fff"></polygon><polygon points="337.31 342.2 340.72 341.57 341.48 337.97 342.25 341.57 345.66 342.21 342.26 343.04 341.48 346.44 340.71 343.04 337.31 342.2" style="fill:#fff"></polygon><polygon points="132.53 396.62 135.94 395.99 136.71 392.39 137.47 395.99 140.88 396.62 137.48 397.45 136.71 400.85 135.93 397.45 132.53 396.62" style="fill:#fff"></polygon><path d="M143,387.85a1,1,0,0,0,0-2A1,1,0,0,0,143,387.85Z" style="fill:#fff"></path><path d="M396,297.17a1,1,0,0,0,0-2A1,1,0,0,0,396,297.17Z" style="fill:#fff"></path><path d="M141.78,98.12a1,1,0,0,0,0-2A1,1,0,0,0,141.78,98.12Z" style="fill:#fff"></path><path d="M390.2,130.49a1,1,0,0,0,0-2A1,1,0,0,0,390.2,130.49Z" style="fill:#fff"></path><path d="M102.78,287.31a.71.71,0,0,0,0-1.41A.71.71,0,0,0,102.78,287.31Z" style="fill:#fff"></path><path d="M292.86,117.88a.7.7,0,0,0,0-1.4A.7.7,0,0,0,292.86,117.88Z" style="fill:#fff"></path><path d="M384.2,257.46a.7.7,0,0,0,0-1.4A.7.7,0,0,0,384.2,257.46Z" style="fill:#fff"></path><path d="M326.67,67.4a.7.7,0,0,0,0-1.4A.7.7,0,0,0,326.67,67.4Z" style="fill:#fff"></path><path d="M160.86,248.21a1.9,1.9,0,0,0,0-3.79A1.9,1.9,0,0,0,160.86,248.21Z" style="fill:#fff"></path><path d="M397.83,138.92c2.44,0,2.44-3.8,0-3.8A1.9,1.9,0,0,0,397.83,138.92Z" style="fill:#fff"></path></g></svg>
